<svg width="196px" height="52px" viewBox="0 0 196 52" xmlns="http://www.w3.org/2000/svg" xmlns:xlink="http://www.w3.org/1999/xlink"><defs><path d="M14.732 0h9.012c3.567 0 4.86.371 6.163 1.069a7.27 7.27 0 0 1 3.024 3.024C33.63 5.396 34 6.689 34 10.256v13.488c0 3.567-.371 4.86-1.069 6.163a7.27 7.27 0 0 1-3.024 3.024C28.604 33.63 27.311 34 23.744 34H10.256c-3.567 0-4.86-.371-6.163-1.069a7.27 7.27 0 0 1-3.024-3.024C.37 28.604 0 27.311 0 23.744v-8.703L14.732 0Z" id="a"/><path d="M10.256 0h13.488c3.567 0 4.86.371 6.163 1.069a7.27 7.27 0 0 1 3.024 3.024C33.63 5.396 34 6.689 34 10.256V19L19.5 34h-9.244c-3.567 0-4.86-.371-6.163-1.069a7.27 7.27 0 0 1-3.024-3.024C.37 28.604 0 27.311 0 23.744V10.256c0-3.567.371-4.86 1.069-6.163a7.27 7.27 0 0 1 3.024-3.024C5.396.37 6.689 0 10.256 0Z" id="b"/><path d="M33.999 18 34 23.744c0 3.567-.371 4.86-1.069 6.163a7.27 7.27 0 0 1-3.024 3.024C28.604 33.63 27.311 34 23.744 34H18v-5.744c0-3.567.371-4.86 1.069-6.163a7.27 7.27 0 0 1 3.024-3.024C23.396 18.37 24.689 18 28.256 18h5.743Z" id="c"/></defs><g fill="none"><path d="M9.136 50.174V.275H0v49.899h9.136Zm23.515 1.124c10.823 0 18.624-7.73 18.624-19.116 0-11.385-7.801-19.116-18.624-19.116-10.894 0-18.695 7.73-18.695 19.116s7.801 19.116 18.695 19.116Zm0-7.73c-5.693 0-9.418-4.428-9.418-11.386 0-6.817 3.725-11.385 9.418-11.385 5.622 0 9.347 4.568 9.347 11.385 0 6.958-3.725 11.386-9.347 11.386Zm43.193 7.59c9.136 0 15.953-7.45 15.953-18.976 0-11.385-6.676-18.975-15.883-18.975-4.639 0-8.223 1.616-10.823 4.849V.276h-9.137v49.898h8.504v-4.568c2.53 3.725 6.325 5.552 11.386 5.552Zm-2.109-7.942c-5.27 0-8.996-4.217-8.996-11.034 0-6.747 3.725-11.104 9.066-11.104 5.342 0 8.715 4.357 8.715 11.104 0 6.747-3.514 11.034-8.785 11.034Zm40.241 8.082c6.115 0 10.964-1.897 16.024-7.028l-5.13-5.622c-2.25 1.898-4.077 3.163-5.553 3.865-1.405.703-3.092 1.055-5.13 1.055-5.974 0-9.277-3.444-10.12-8.996h25.792c.07-1.054.141-2.25.141-3.585 0-11.244-6.044-17.92-16.797-17.92-11.174 0-18.062 8.152-18.062 19.326 0 11.456 7.239 18.905 18.835 18.905Zm7.098-23.262h-16.796c1.054-4.85 3.935-7.801 8.644-7.801 4.85 0 7.801 2.951 8.152 7.8Z" fill-opacity=".803" fill="#000"/><g transform="translate(144)"><use fill="#F34747" xlink:href="#a" transform="translate(18 18)"/><use fill="#00DDB3" xlink:href="#b"/><use fill="#333" xlink:href="#c"/></g></g></svg>